<?xml version="1.0" encoding="UTF-8" standalone="no"?>
<!-- Generator: Adobe Illustrator 19.1.0, SVG Export Plug-In . SVG Version: 6.00 Build 0)  -->

<svg
   xmlns:dc="http://purl.org/dc/elements/1.1/"
   xmlns:cc="http://creativecommons.org/ns#"
   xmlns:rdf="http://www.w3.org/1999/02/22-rdf-syntax-ns#"
   xmlns:svg="http://www.w3.org/2000/svg"
   xmlns="http://www.w3.org/2000/svg"
   xmlns:sodipodi="http://sodipodi.sourceforge.net/DTD/sodipodi-0.dtd"
   xmlns:inkscape="http://www.inkscape.org/namespaces/inkscape"
   version="1.1"
   id="Layer_1"
   x="0px"
   y="0px"
   width="400px"
   height="270px"
   viewBox="0 0 400 270"
   style="enable-background:new 0 0 400 270;"
   xml:space="preserve"
   inkscape:version="0.91 r13725"
   sodipodi:docname="foundation6-templates-02.svg"><metadata
     id="metadata3526"><rdf:RDF><cc:Work
         rdf:about=""><dc:format>image/svg+xml</dc:format><dc:type
           rdf:resource="http://purl.org/dc/dcmitype/StillImage" /></cc:Work></rdf:RDF></metadata><defs
     id="defs3524" /><sodipodi:namedview
     pagecolor="#ffffff"
     bordercolor="#666666"
     borderopacity="1"
     objecttolerance="10"
     gridtolerance="10"
     guidetolerance="10"
     inkscape:pageopacity="0"
     inkscape:pageshadow="2"
     inkscape:window-width="1876"
     inkscape:window-height="1155"
     id="namedview3522"
     showgrid="false"
     inkscape:zoom="1"
     inkscape:cx="415"
     inkscape:cy="135"
     inkscape:window-x="0"
     inkscape:window-y="0"
     inkscape:window-maximized="1"
     inkscape:current-layer="Layer_1" /><style
     type="text/css"
     id="style3452">
	.st0{fill:#FFFFFF;stroke:#E2E2E2;stroke-miterlimit:10;}
	.st1{opacity:0.5;fill:none;stroke:#EBEBEB;stroke-width:4.3124;stroke-linecap:round;stroke-miterlimit:10;}
	.st2{fill:#05526A;stroke:#05526A;stroke-miterlimit:10;}
	.st3{opacity:0.5;fill:#EBEBEB;}
	.st4{opacity:0.1;fill:#EBEBEB;}
	.st5{fill:#CED4D6;}
	.st6{fill:#9DADB3;}
	.st7{fill:#05526A;}
	.st8{opacity:0.75;fill:#05526A;}
	.st9{fill:#ECECEC;}
	.st10{opacity:0.25;fill:#EBEBEB;}
	.st11{fill:#FFFFFF;}
	.st12{fill:#CED4D6;stroke:#CED4D6;stroke-miterlimit:10;}
	.st13{fill:#CED4D6;stroke:#E2E2E2;stroke-miterlimit:10;}
</style><g
     id="g3454"
     transform="matrix(2.6726685,0,0,3.1632094,-308.5987,-326.83463)"><path
       class="st0"
       d="m 6.3,17.4 386.7,0 c 2.8,0 5,2.3 5,5.2 l 0,238 c 0,2.9 -2.2,5.2 -5,5.2 l -386.7,0 c -2.8,0 -5,-2.3 -5,-5.2 l 0,-238 c 0,-2.8 2.2,-5.2 5,-5.2 z"
       id="path3456"
       inkscape:connector-curvature="0"
       style="fill:#ffffff;stroke:#e2e2e2;stroke-miterlimit:10" /><line
       class="st1"
       x1="59.900002"
       y1="28.6"
       x2="118.2"
       y2="28.6"
       id="line3458"
       style="opacity:0.5;fill:none;stroke:#ebebeb;stroke-width:4.31239986;stroke-linecap:round;stroke-miterlimit:10" /><path
       class="st2"
       d="M 395.3,3.5 4,3.5 C 2.3,3.5 1,4.4 1,5.6 l 0,10.5 0,6.4 0,10.7 397.3,0 0,-10.7 0,-6.4 0,-10.5 c 0,-1.1 -1.4,-2.1 -3,-2.1 z"
       id="path3460"
       inkscape:connector-curvature="0"
       style="fill:#05526a;stroke:#05526a;stroke-miterlimit:10" /><g
       id="g3462"><path
         class="st7"
         d="m 249.7,154.8 c 0,-0.6 -1.5,-1.1 -3.4,-1.1 l -40.9,0 c -1.9,0 -3.4,0.5 -3.4,1.1 l 0,12.7 c 0,0.6 1.5,1.1 3.4,1.1 l 40.9,0 c 1.9,0 3.4,-0.5 3.4,-1.1 l 0,-12.7 z"
         id="path3464"
         inkscape:connector-curvature="0"
         style="fill:#05526a" /><path
         class="st8"
         d="m 303.2,154.8 c 0,-0.6 -1.5,-1.1 -3.4,-1.1 l -40.9,0 c -1.9,0 -3.4,0.5 -3.4,1.1 l 0,12.7 c 0,0.6 1.5,1.1 3.4,1.1 l 40.9,0 c 1.9,0 3.4,-0.5 3.4,-1.1 l 0,-12.7 z"
         id="path3466"
         inkscape:connector-curvature="0"
         style="opacity:0.75;fill:#05526a" /></g><path
       class="st6"
       d="m 338,55.3 -35.6,0 -6.7,0 -15.1,0 -20.6,0 -15.1,0 -6.7,0 -35.6,0 c -1.1,0 -2,0.9 -2,2 l 0,5 c 0,1.1 0.9,2 2,2 l 35.6,0 6.7,0 15.1,0 20.5,0 15.1,0 6.7,0 35.7,0 c 1.1,0 2,-0.9 2,-2 l 0,-5 c 0,-1.1 -0.9,-2 -2,-2 z"
       id="path3468"
       inkscape:connector-curvature="0"
       style="fill:#9dadb3" /><path
       class="st3"
       d="m 69.9,14.2 -26.5,0 -11.1,0 -15,0 c -1.1,0 -2,0.9 -2,2 l 0,5 c 0,1.1 0.9,2 2,2 l 15,0 11.1,0 26.6,0 c 1.1,0 2,-0.9 2,-2 l 0,-5 c -0.1,-1.1 -1,-2 -2.1,-2 z"
       id="path3470"
       inkscape:connector-curvature="0"
       style="opacity:0.5;fill:#ebebeb" /><g
       id="g3472"><path
         class="st4"
         d="m 358.3,14.1 -0.5,0 0,0 -28.5,0 -3.4,0 -28.5,0 c -0.6,0 -1,0.9 -1,2 l 0,5 c 0,1.1 0.5,2 1,2 l 28.5,0 3.4,0 28.5,0 0,0 0.5,0 2.9,0 0,-9.1 -2.9,0 z"
         id="path3474"
         inkscape:connector-curvature="0"
         style="opacity:0.1;fill:#ebebeb" /><path
         class="st10"
         d="m 379.4,14.1 -11.5,0 -6.7,0 0,9.1 6.7,0 11.5,0 c 0.6,0 1,-0.9 1,-2 l 0,-5 c 0,-1.2 -0.5,-2.1 -1,-2.1 z"
         id="path3476"
         inkscape:connector-curvature="0"
         style="opacity:0.25;fill:#ebebeb" /></g><path
       class="st5"
       d="m 177.5,51.6 -47.7,0 -62.4,0 -47.7,0 c -2.2,0 -4,1.8 -4,4 l 0,75.8 c 0,2.2 1.8,4 4,4 l 47.7,0 62.3,0 47.7,0 c 2.2,0 4,-1.8 4,-4 l 0,-75.8 c 0.1,-2.2 -1.7,-4 -3.9,-4 z"
       id="path3478"
       inkscape:connector-curvature="0"
       style="fill:#ced4d6" /><path
       class="st5"
       d="m 48.9,147.5 c 0,-0.6 -0.5,-1.1 -1.1,-1.1 l -31,0 c -0.6,0 -1.1,0.5 -1.1,1.1 l 0,21.3 c 0,0.6 0.5,1.1 1.1,1.1 l 31,0 c 0.6,0 1.1,-0.5 1.1,-1.1 l 0,-21.3 z"
       id="path3480"
       inkscape:connector-curvature="0"
       style="fill:#ced4d6" /><g
       id="g3482"><path
         class="st9"
         d="m 116,207.7 -42.3,0 c -1.1,0 -2,0.9 -2,2 l 0,5 c 0,1.1 0.9,2 2,2 l 42.3,0 c 1.1,0 2,-0.9 2,-2 l 0,-5 c 0.1,-1.1 -0.8,-2 -2,-2 z"
         id="path3484"
         inkscape:connector-curvature="0"
         style="fill:#ececec" /><path
         class="st9"
         d="m 108.6,222.5 -12.7,0 -9.4,0 -12.8,0 c -1.1,0 -2,0.9 -2,2 l 0,5 c 0,1.1 0.9,2 2,2 l 12.8,0 9.4,0 12.8,0 c 1.1,0 2,-0.9 2,-2 l 0,-5 c 0,-1.1 -0.9,-2 -2.1,-2 z"
         id="path3486"
         inkscape:connector-curvature="0"
         style="fill:#ececec" /><path
         class="st5"
         d="m 61.8,208.4 c 0,-0.9 -0.7,-1.5 -1.5,-1.5 l -43,0 c -0.9,0 -1.5,0.7 -1.5,1.5 l 0,29.6 c 0,0.9 0.7,1.5 1.5,1.5 l 42.9,0 c 0.9,0 1.5,-0.7 1.5,-1.5 l 0,-29.6 z"
         id="path3488"
         inkscape:connector-curvature="0"
         style="fill:#ced4d6" /></g><g
       id="g3490"><path
         class="st9"
         d="m 233.4,207.7 -33.3,0 c -1.1,0 -2,0.9 -2,2 l 0,5 c 0,1.1 0.9,2 2,2 l 33.3,0 c 1.1,0 2,-0.9 2,-2 l 0,-5 c 0,-1.1 -0.9,-2 -2,-2 z"
         id="path3492"
         inkscape:connector-curvature="0"
         style="fill:#ececec" /><path
         class="st9"
         d="m 250.2,222.5 -12.8,0 -24.5,0 -12.8,0 c -1.1,0 -2,0.9 -2,2 l 0,5 c 0,1.1 0.9,2 2,2 l 12.8,0 24.5,0 12.8,0 c 1.1,0 2,-0.9 2,-2 l 0,-5 c 0,-1.1 -0.9,-2 -2,-2 z"
         id="path3494"
         inkscape:connector-curvature="0"
         style="fill:#ececec" /><path
         class="st5"
         d="m 188.2,208.4 c 0,-0.9 -0.7,-1.5 -1.5,-1.5 l -42.9,0 c -0.9,0 -1.5,0.7 -1.5,1.5 l 0,29.6 c 0,0.9 0.7,1.5 1.5,1.5 l 42.9,0 c 0.9,0 1.5,-0.7 1.5,-1.5 l 0,-29.6 z"
         id="path3496"
         inkscape:connector-curvature="0"
         style="fill:#ced4d6" /></g><g
       id="g3498"><path
         class="st9"
         d="m 363.1,207.7 -31.3,0 c -1.1,0 -2,0.9 -2,2 l 0,5 c 0,1.1 0.9,2 2,2 l 31.3,0 c 1.1,0 2,-0.9 2,-2 l 0,-5 c 0,-1.1 -0.9,-2 -2,-2 z"
         id="path3500"
         inkscape:connector-curvature="0"
         style="fill:#ececec" /><path
         class="st9"
         d="m 378.9,222.5 -9.7,0 -24.5,0 -12.8,0 c -1.1,0 -2,0.9 -2,2 l 0,5 c 0,1.1 0.9,2 2,2 l 12.8,0 24.5,0 9.7,0 c 1.1,0 2,-0.9 2,-2 l 0,-5 c 0,-1.1 -0.9,-2 -2,-2 z"
         id="path3502"
         inkscape:connector-curvature="0"
         style="fill:#ececec" /><path
         class="st5"
         d="m 319.9,208.4 c 0,-0.9 -0.7,-1.5 -1.5,-1.5 l -42.9,0 c -0.9,0 -1.5,0.7 -1.5,1.5 l 0,29.6 c 0,0.9 0.7,1.5 1.5,1.5 l 42.9,0 c 0.9,0 1.5,-0.7 1.5,-1.5 l 0,-29.6 z"
         id="path3504"
         inkscape:connector-curvature="0"
         style="fill:#ced4d6" /></g><path
       class="st5"
       d="m 92.8,147.5 c 0,-0.6 -0.5,-1.1 -1.1,-1.1 l -31,0 c -0.6,0 -1.1,0.5 -1.1,1.1 l 0,21.3 c 0,0.6 0.5,1.1 1.1,1.1 l 31,0 c 0.6,0 1.1,-0.5 1.1,-1.1 l 0,-21.3 z"
       id="path3506"
       inkscape:connector-curvature="0"
       style="fill:#ced4d6" /><path
       class="st5"
       d="m 136.7,147.5 c 0,-0.6 -0.5,-1.1 -1.1,-1.1 l -31,0 c -0.6,0 -1.1,0.5 -1.1,1.1 l 0,21.3 c 0,0.6 0.5,1.1 1.1,1.1 l 31,0 c 0.6,0 1.1,-0.5 1.1,-1.1 l 0,-21.3 z"
       id="path3508"
       inkscape:connector-curvature="0"
       style="fill:#ced4d6" /><path
       class="st5"
       d="m 180.6,147.5 c 0,-0.6 -0.5,-1.1 -1.1,-1.1 l -31,0 c -0.6,0 -1.1,0.5 -1.1,1.1 l 0,21.3 c 0,0.6 0.5,1.1 1.1,1.1 l 31,0 c 0.6,0 1.1,-0.5 1.1,-1.1 l 0,-21.3 z"
       id="path3510"
       inkscape:connector-curvature="0"
       style="fill:#ced4d6" /><g
       id="g3512"><path
         class="st9"
         d="m 202.5,84.2 31,0 4.6,0 1.7,0 17.2,0 12.2,0 1.7,0 4.6,0 13.1,0 4,0 1.7,0 0.1,0 7,0 1.7,0 3.5,0 0.6,0 1.7,0 8.5,0 4.3,0 1.7,0 15.5,0 20.2,0 c 1.1,0 2,-0.9 2,-2 l 0,-5 c 0,-1.1 -0.9,-2 -2,-2 l -20.2,0 -15.5,0 -1.7,0 -4.3,0 -8.5,0 -1.7,0 -0.6,0 -3.6,0 -1.7,0 -7,0 -0.1,0 -1.7,0 -4,0 -13.1,0 -4.6,0 -1.7,0 -12.1,0 -17.1,0 -1.7,0 -4.6,0 -31,0 c -1.1,0 -2,0.9 -2,2 l 0,5 c -0.1,1.1 0.8,2 1.9,2 z"
         id="path3514"
         inkscape:connector-curvature="0"
         style="fill:#ececec" /><path
         class="st9"
         d="m 381.7,90.6 -20.2,0 -15.5,0 -1.7,0 -14.5,0 -4,0 -1.7,0 -7,0 -8.5,0 -2.2,0 -12.2,0 -1.7,0 -4,0 -13.1,0 -4.6,0 -1.7,0 -12.1,0 -17.1,0 -1.7,0 -4.6,0 -31,0 c -1.1,0 -2,0.9 -2,2 l 0,5 c 0,1.1 0.9,2 2,2 l 31,0 4.6,0 1.7,0 17.1,0 12.2,0 1.7,0 4.6,0 13.1,0 4,0 1.7,0 12.2,0 2.2,0 8.5,0 7,0 1.7,0 4,0 14.5,0 1.7,0 15.5,0 20.2,0 c 1.1,0 2,-0.9 2,-2 l 0,-5 c -0.1,-1.1 -1,-2 -2.1,-2 z"
         id="path3516"
         inkscape:connector-curvature="0"
         style="fill:#ececec" /><path
         class="st9"
         d="m 202.5,115.1 31,0 4.6,0 1.7,0 17.2,0 12.2,0 1.7,0 4.6,0 13.1,0 4,0 1.7,0 8.8,0 3.4,0 2.2,0 1.3,0 1.7,0 4,0 1.5,0 13,0 1.7,0 15.5,0 20.2,0 c 1.1,0 2,-0.9 2,-2 l 0,-5 c 0,-1.1 -0.9,-2 -2,-2 l -20.2,0 -15.5,0 -1.7,0 -13,0 -1.5,0 -4,0 -1.7,0 -1.3,0 -2.2,0 -3.4,0 -8.8,0 -1.7,0 -4,0 -13.1,0 -4.6,0 -1.7,0 -12.2,0 -17.1,0 -1.7,0 -4.6,0 -31,0 c -1.1,0 -2,0.9 -2,2 l 0,5 c -0.1,1.1 0.8,2 1.9,2 z"
         id="path3518"
         inkscape:connector-curvature="0"
         style="fill:#ececec" /><path
         class="st9"
         d="m 377,121.5 -20.2,0 -15.5,0 -1.7,0 -14.5,0 -4,0 -1.7,0 -2.2,0 -4.7,0 -3.8,0 -2.2,0 -12.2,0 -1.7,0 -4,0 -13.1,0 -4.6,0 -1.7,0 -12.2,0 -17.1,0 -1.7,0 -4.6,0 -31,0 c -1.1,0 -2,0.9 -2,2 l 0,5 c 0,1.1 0.9,2 2,2 l 31,0 4.6,0 1.7,0 17.1,0 12.2,0 1.7,0 4.6,0 13.1,0 4,0 1.7,0 12.2,0 2.2,0 3.8,0 4.7,0 2.2,0 1.7,0 4,0 14.5,0 1.7,0 15.5,0 20.2,0 c 1.1,0 2,-0.9 2,-2 l 0,-5 c 0,-1.1 -0.9,-2 -2,-2 z"
         id="path3520"
         inkscape:connector-curvature="0"
         style="fill:#ececec" /></g></g></svg>