<?xml version="1.0" encoding="utf-8"?>
<!-- Generator: Adobe Illustrator 16.0.4, SVG Export Plug-In . SVG Version: 6.00 Build 0)  -->
<!DOCTYPE svg PUBLIC "-//W3C//DTD SVG 1.1//EN" "http://www.w3.org/Graphics/SVG/1.1/DTD/svg11.dtd">
<svg version="1.1" xmlns="http://www.w3.org/2000/svg" xmlns:xlink="http://www.w3.org/1999/xlink" x="0px" y="0px"
	 width="841.89px" height="595.28px" viewBox="0 0 841.89 595.28" enable-background="new 0 0 841.89 595.28" xml:space="preserve">
<g id="图层_2">
	<rect x="-17.197" y="-11.911" fill="#40414E" stroke="#FFFFFF" stroke-miterlimit="10" width="869.492" height="617.797"/>
	<g>
		
			<line fill="#595967" stroke="#595967" stroke-width="0.25" stroke-miterlimit="10" x1="-1259.938" y1="662.223" x2="397.262" y2="-994.994"/>
		
			<line fill="#595967" stroke="#595967" stroke-width="0.25" stroke-miterlimit="10" x1="-1276.059" y1="662.223" x2="381.158" y2="-994.997"/>
		
			<line fill="#595967" stroke="#595967" stroke-width="0.25" stroke-miterlimit="10" x1="-1292.163" y1="662.223" x2="365.045" y2="-994.997"/>
		
			<line fill="#595967" stroke="#595967" stroke-width="0.25" stroke-miterlimit="10" x1="-1308.275" y1="662.223" x2="348.933" y2="-994.981"/>
		
			<line fill="#595967" stroke="#595967" stroke-width="0.25" stroke-miterlimit="10" x1="-1227.711" y1="662.223" x2="429.488" y2="-994.997"/>
		
			<line fill="#595967" stroke="#595967" stroke-width="0.25" stroke-miterlimit="10" x1="-1243.834" y1="662.223" x2="413.376" y2="-994.981"/>
		
			<line fill="#595967" stroke="#595967" stroke-width="0.25" stroke-miterlimit="10" x1="-1163.279" y1="662.223" x2="493.927" y2="-994.997"/>
		
			<line fill="#595967" stroke="#595967" stroke-width="0.25" stroke-miterlimit="10" x1="-1179.393" y1="662.223" x2="477.816" y2="-995.012"/>
		
			<line fill="#595967" stroke="#595967" stroke-width="0.25" stroke-miterlimit="10" x1="-1195.498" y1="662.223" x2="461.704" y2="-995.008"/>
		
			<line fill="#595967" stroke="#595967" stroke-width="0.25" stroke-miterlimit="10" x1="-1211.617" y1="662.223" x2="445.596" y2="-994.994"/>
		
			<line fill="#595967" stroke="#595967" stroke-width="0.25" stroke-miterlimit="10" x1="-1131.055" y1="662.223" x2="526.147" y2="-994.997"/>
		
			<line fill="#595967" stroke="#595967" stroke-width="0.25" stroke-miterlimit="10" x1="-1147.164" y1="662.223" x2="510.041" y2="-994.997"/>
		
			<line fill="#595967" stroke="#595967" stroke-width="0.25" stroke-miterlimit="10" x1="-1066.614" y1="662.223" x2="590.588" y2="-994.997"/>
		
			<line fill="#595967" stroke="#595967" stroke-width="0.25" stroke-miterlimit="10" x1="-1082.735" y1="662.223" x2="574.481" y2="-995.008"/>
		
			<line fill="#595967" stroke="#595967" stroke-width="0.25" stroke-miterlimit="10" x1="-1098.837" y1="662.223" x2="558.369" y2="-994.994"/>
		
			<line fill="#595967" stroke="#595967" stroke-width="0.25" stroke-miterlimit="10" x1="-1114.952" y1="662.223" x2="542.257" y2="-994.994"/>
		
			<line fill="#595967" stroke="#595967" stroke-width="0.25" stroke-miterlimit="10" x1="-1034.384" y1="662.223" x2="622.812" y2="-994.994"/>
		
			<line fill="#595967" stroke="#595967" stroke-width="0.25" stroke-miterlimit="10" x1="-1050.509" y1="662.223" x2="606.697" y2="-994.994"/>
		
			<line fill="#595967" stroke="#595967" stroke-width="0.25" stroke-miterlimit="10" x1="-969.956" y1="662.223" x2="687.255" y2="-995.008"/>
		
			<line fill="#595967" stroke="#595967" stroke-width="0.25" stroke-miterlimit="10" x1="-986.068" y1="662.223" x2="671.14" y2="-995.008"/>
		
			<line fill="#595967" stroke="#595967" stroke-width="0.25" stroke-miterlimit="10" x1="-1002.171" y1="662.223" x2="655.027" y2="-994.997"/>
		
			<line fill="#595967" stroke="#595967" stroke-width="0.25" stroke-miterlimit="10" x1="-1018.292" y1="662.223" x2="638.924" y2="-994.994"/>
		
			<line fill="#595967" stroke="#595967" stroke-width="0.25" stroke-miterlimit="10" x1="-937.726" y1="662.223" x2="719.478" y2="-994.994"/>
		
			<line fill="#595967" stroke="#595967" stroke-width="0.25" stroke-miterlimit="10" x1="-953.839" y1="662.223" x2="703.362" y2="-994.994"/>
		
			<line fill="#595967" stroke="#595967" stroke-width="0.25" stroke-miterlimit="10" x1="-873.298" y1="662.223" x2="783.92" y2="-994.994"/>
		
			<line fill="#595967" stroke="#595967" stroke-width="0.25" stroke-miterlimit="10" x1="-889.399" y1="662.223" x2="767.808" y2="-994.997"/>
		
			<line fill="#595967" stroke="#595967" stroke-width="0.25" stroke-miterlimit="10" x1="-905.513" y1="662.223" x2="751.693" y2="-994.994"/>
		
			<line fill="#595967" stroke="#595967" stroke-width="0.25" stroke-miterlimit="10" x1="-921.627" y1="662.223" x2="735.585" y2="-994.981"/>
		
			<line fill="#595967" stroke="#595967" stroke-width="0.25" stroke-miterlimit="10" x1="-841.072" y1="662.223" x2="816.136" y2="-994.994"/>
		
			<line fill="#595967" stroke="#595967" stroke-width="0.25" stroke-miterlimit="10" x1="-857.178" y1="662.223" x2="800.022" y2="-994.978"/>
		
			<line fill="#595967" stroke="#595967" stroke-width="0.25" stroke-miterlimit="10" x1="-776.63" y1="662.223" x2="880.579" y2="-994.997"/>
		
			<line fill="#595967" stroke="#595967" stroke-width="0.25" stroke-miterlimit="10" x1="-792.735" y1="662.223" x2="864.465" y2="-994.994"/>
		
			<line fill="#595967" stroke="#595967" stroke-width="0.25" stroke-miterlimit="10" x1="-808.855" y1="662.223" x2="848.361" y2="-994.994"/>
		
			<line fill="#595967" stroke="#595967" stroke-width="0.25" stroke-miterlimit="10" x1="-824.96" y1="662.223" x2="832.25" y2="-994.994"/>
		
			<line fill="#595967" stroke="#595967" stroke-width="0.25" stroke-miterlimit="10" x1="-744.403" y1="662.223" x2="912.801" y2="-994.994"/>
		
			<line fill="#595967" stroke="#595967" stroke-width="0.25" stroke-miterlimit="10" x1="-760.508" y1="662.223" x2="896.69" y2="-994.994"/>
		
			<line fill="#595967" stroke="#595967" stroke-width="0.25" stroke-miterlimit="10" x1="-679.972" y1="662.223" x2="977.244" y2="-995.008"/>
		
			<line fill="#595967" stroke="#595967" stroke-width="0.25" stroke-miterlimit="10" x1="-696.077" y1="662.223" x2="961.129" y2="-994.997"/>
		
			<line fill="#595967" stroke="#595967" stroke-width="0.25" stroke-miterlimit="10" x1="-712.189" y1="662.223" x2="945.021" y2="-994.997"/>
		
			<line fill="#595967" stroke="#595967" stroke-width="0.25" stroke-miterlimit="10" x1="-728.295" y1="662.223" x2="928.907" y2="-994.994"/>
		
			<line fill="#595967" stroke="#595967" stroke-width="0.25" stroke-miterlimit="10" x1="-647.747" y1="662.223" x2="1009.459" y2="-994.981"/>
		
			<line fill="#595967" stroke="#595967" stroke-width="0.25" stroke-miterlimit="10" x1="-663.851" y1="662.223" x2="993.353" y2="-994.997"/>
		
			<line fill="#595967" stroke="#595967" stroke-width="0.25" stroke-miterlimit="10" x1="-583.305" y1="662.223" x2="1073.902" y2="-995.012"/>
		
			<line fill="#595967" stroke="#595967" stroke-width="0.25" stroke-miterlimit="10" x1="-599.412" y1="662.223" x2="1057.79" y2="-995.008"/>
		
			<line fill="#595967" stroke="#595967" stroke-width="0.25" stroke-miterlimit="10" x1="-615.531" y1="662.223" x2="1041.687" y2="-995.008"/>
		
			<line fill="#595967" stroke="#595967" stroke-width="0.25" stroke-miterlimit="10" x1="-631.633" y1="662.223" x2="1025.571" y2="-994.994"/>
		
			<line fill="#595967" stroke="#595967" stroke-width="0.25" stroke-miterlimit="10" x1="-551.075" y1="662.223" x2="1106.127" y2="-994.997"/>
		
			<line fill="#595967" stroke="#595967" stroke-width="0.25" stroke-miterlimit="10" x1="-567.181" y1="662.223" x2="1090.017" y2="-994.994"/>
		
			<line fill="#595967" stroke="#595967" stroke-width="0.25" stroke-miterlimit="10" x1="-486.64" y1="662.223" x2="1170.567" y2="-994.997"/>
		
			<line fill="#595967" stroke="#595967" stroke-width="0.25" stroke-miterlimit="10" x1="-502.754" y1="662.223" x2="1154.457" y2="-995.008"/>
		
			<line fill="#595967" stroke="#595967" stroke-width="0.25" stroke-miterlimit="10" x1="-518.863" y1="662.223" x2="1138.343" y2="-994.994"/>
		
			<line fill="#595967" stroke="#595967" stroke-width="0.25" stroke-miterlimit="10" x1="-534.966" y1="662.223" x2="1122.23" y2="-994.981"/>
		
			<line fill="#595967" stroke="#595967" stroke-width="0.25" stroke-miterlimit="10" x1="-454.417" y1="662.223" x2="1202.788" y2="-994.997"/>
		
			<line fill="#595967" stroke="#595967" stroke-width="0.25" stroke-miterlimit="10" x1="-470.523" y1="662.223" x2="1186.681" y2="-994.981"/>
		
			<line fill="#595967" stroke="#595967" stroke-width="0.25" stroke-miterlimit="10" x1="-389.975" y1="662.223" x2="1267.226" y2="-995.008"/>
		
			<line fill="#595967" stroke="#595967" stroke-width="0.25" stroke-miterlimit="10" x1="-406.095" y1="662.223" x2="1251.123" y2="-995.008"/>
		
			<line fill="#595967" stroke="#595967" stroke-width="0.25" stroke-miterlimit="10" x1="-422.197" y1="662.223" x2="1235.008" y2="-994.997"/>
		
			<line fill="#595967" stroke="#595967" stroke-width="0.25" stroke-miterlimit="10" x1="-438.31" y1="662.223" x2="1218.896" y2="-994.997"/>
		
			<line fill="#595967" stroke="#595967" stroke-width="0.25" stroke-miterlimit="10" x1="-357.744" y1="662.223" x2="1299.453" y2="-994.997"/>
		
			<line fill="#595967" stroke="#595967" stroke-width="0.25" stroke-miterlimit="10" x1="-373.868" y1="662.223" x2="1283.339" y2="-994.994"/>
		
			<line fill="#595967" stroke="#595967" stroke-width="0.25" stroke-miterlimit="10" x1="-293.316" y1="662.223" x2="1363.894" y2="-994.994"/>
		
			<line fill="#595967" stroke="#595967" stroke-width="0.25" stroke-miterlimit="10" x1="-309.43" y1="662.223" x2="1347.784" y2="-994.994"/>
		
			<line fill="#595967" stroke="#595967" stroke-width="0.25" stroke-miterlimit="10" x1="-325.532" y1="662.223" x2="1331.668" y2="-994.981"/>
		
			<line fill="#595967" stroke="#595967" stroke-width="0.25" stroke-miterlimit="10" x1="-341.652" y1="662.223" x2="1315.566" y2="-994.994"/>
		
			<line fill="#595967" stroke="#595967" stroke-width="0.25" stroke-miterlimit="10" x1="-261.09" y1="662.223" x2="1396.108" y2="-994.981"/>
		
			<line fill="#595967" stroke="#595967" stroke-width="0.25" stroke-miterlimit="10" x1="-277.199" y1="662.223" x2="1380.004" y2="-994.981"/>
		
			<line fill="#595967" stroke="#595967" stroke-width="0.25" stroke-miterlimit="10" x1="-212.77" y1="662.223" x2="1444.449" y2="-994.994"/>
		
			<line fill="#595967" stroke="#595967" stroke-width="0.25" stroke-miterlimit="10" x1="-228.874" y1="662.223" x2="1428.334" y2="-994.997"/>
		
			<line fill="#595967" stroke="#595967" stroke-width="0.25" stroke-miterlimit="10" x1="-244.987" y1="662.223" x2="1412.225" y2="-995.008"/>
		
			<line fill="#595967" stroke="#595967" stroke-width="0.25" stroke-miterlimit="10" x1="-164.431" y1="662.223" x2="1492.774" y2="-994.994"/>
		
			<line fill="#595967" stroke="#595967" stroke-width="0.25" stroke-miterlimit="10" x1="-180.543" y1="662.223" x2="1476.665" y2="-994.997"/>
		
			<line fill="#595967" stroke="#595967" stroke-width="0.25" stroke-miterlimit="10" x1="-196.65" y1="662.223" x2="1460.554" y2="-994.994"/>
	</g>
	<g>
		
			<line fill="#595967" stroke="#595967" stroke-width="0.25" stroke-miterlimit="10" x1="-666.322" y1="1231.981" x2="990.879" y2="-425.233"/>
		
			<line fill="#595967" stroke="#595967" stroke-width="0.25" stroke-miterlimit="10" x1="-682.441" y1="1231.981" x2="974.775" y2="-425.237"/>
		
			<line fill="#595967" stroke="#595967" stroke-width="0.25" stroke-miterlimit="10" x1="-698.547" y1="1231.981" x2="958.662" y2="-425.237"/>
		
			<line fill="#595967" stroke="#595967" stroke-width="0.25" stroke-miterlimit="10" x1="-714.658" y1="1231.981" x2="942.548" y2="-425.222"/>
		
			<line fill="#595967" stroke="#595967" stroke-width="0.25" stroke-miterlimit="10" x1="-634.093" y1="1231.981" x2="1023.105" y2="-425.237"/>
		
			<line fill="#595967" stroke="#595967" stroke-width="0.25" stroke-miterlimit="10" x1="-650.216" y1="1231.981" x2="1006.993" y2="-425.222"/>
		
			<line fill="#595967" stroke="#595967" stroke-width="0.25" stroke-miterlimit="10" x1="-569.664" y1="1231.981" x2="1087.545" y2="-425.237"/>
		
			<line fill="#595967" stroke="#595967" stroke-width="0.25" stroke-miterlimit="10" x1="-585.775" y1="1231.981" x2="1071.434" y2="-425.252"/>
		
			<line fill="#595967" stroke="#595967" stroke-width="0.25" stroke-miterlimit="10" x1="-601.881" y1="1231.981" x2="1055.319" y2="-425.25"/>
		
			<line fill="#595967" stroke="#595967" stroke-width="0.25" stroke-miterlimit="10" x1="-617.999" y1="1231.981" x2="1039.214" y2="-425.233"/>
		
			<line fill="#595967" stroke="#595967" stroke-width="0.25" stroke-miterlimit="10" x1="-537.438" y1="1231.981" x2="1119.765" y2="-425.237"/>
		
			<line fill="#595967" stroke="#595967" stroke-width="0.25" stroke-miterlimit="10" x1="-553.548" y1="1231.981" x2="1103.658" y2="-425.237"/>
		
			<line fill="#595967" stroke="#595967" stroke-width="0.25" stroke-miterlimit="10" x1="-472.999" y1="1231.981" x2="1184.203" y2="-425.237"/>
		
			<line fill="#595967" stroke="#595967" stroke-width="0.25" stroke-miterlimit="10" x1="-489.118" y1="1231.981" x2="1168.1" y2="-425.25"/>
		
			<line fill="#595967" stroke="#595967" stroke-width="0.25" stroke-miterlimit="10" x1="-505.221" y1="1231.981" x2="1151.984" y2="-425.233"/>
		
			<line fill="#595967" stroke="#595967" stroke-width="0.25" stroke-miterlimit="10" x1="-521.333" y1="1231.981" x2="1135.874" y2="-425.233"/>
		
			<line fill="#595967" stroke="#595967" stroke-width="0.25" stroke-miterlimit="10" x1="-440.768" y1="1231.981" x2="1216.43" y2="-425.233"/>
		
			<line fill="#595967" stroke="#595967" stroke-width="0.25" stroke-miterlimit="10" x1="-456.892" y1="1231.981" x2="1200.314" y2="-425.233"/>
		
			<line fill="#595967" stroke="#595967" stroke-width="0.25" stroke-miterlimit="10" x1="-376.34" y1="1231.981" x2="1280.87" y2="-425.25"/>
		
			<line fill="#595967" stroke="#595967" stroke-width="0.25" stroke-miterlimit="10" x1="-392.45" y1="1231.981" x2="1264.76" y2="-425.25"/>
		
			<line fill="#595967" stroke="#595967" stroke-width="0.25" stroke-miterlimit="10" x1="-408.556" y1="1231.981" x2="1248.646" y2="-425.237"/>
		
			<line fill="#595967" stroke="#595967" stroke-width="0.25" stroke-miterlimit="10" x1="-424.675" y1="1231.981" x2="1232.542" y2="-425.233"/>
		
			<line fill="#595967" stroke="#595967" stroke-width="0.25" stroke-miterlimit="10" x1="-344.109" y1="1231.981" x2="1313.096" y2="-425.233"/>
		
			<line fill="#595967" stroke="#595967" stroke-width="0.25" stroke-miterlimit="10" x1="-360.223" y1="1231.981" x2="1296.979" y2="-425.233"/>
		
			<line fill="#595967" stroke="#595967" stroke-width="0.25" stroke-miterlimit="10" x1="-279.681" y1="1231.981" x2="1377.535" y2="-425.233"/>
		
			<line fill="#595967" stroke="#595967" stroke-width="0.25" stroke-miterlimit="10" x1="-295.784" y1="1231.981" x2="1361.425" y2="-425.237"/>
		
			<line fill="#595967" stroke="#595967" stroke-width="0.25" stroke-miterlimit="10" x1="-311.897" y1="1231.981" x2="1345.311" y2="-425.233"/>
		
			<line fill="#595967" stroke="#595967" stroke-width="0.25" stroke-miterlimit="10" x1="-328.01" y1="1231.981" x2="1329.2" y2="-425.222"/>
		
			<line fill="#595967" stroke="#595967" stroke-width="0.25" stroke-miterlimit="10" x1="-247.455" y1="1231.981" x2="1409.751" y2="-425.233"/>
		
			<line fill="#595967" stroke="#595967" stroke-width="0.25" stroke-miterlimit="10" x1="-263.561" y1="1231.981" x2="1393.641" y2="-425.218"/>
		
			<line fill="#595967" stroke="#595967" stroke-width="0.25" stroke-miterlimit="10" x1="-183.014" y1="1231.981" x2="1474.196" y2="-425.237"/>
		
			<line fill="#595967" stroke="#595967" stroke-width="0.25" stroke-miterlimit="10" x1="-199.119" y1="1231.981" x2="1458.081" y2="-425.233"/>
		
			<line fill="#595967" stroke="#595967" stroke-width="0.25" stroke-miterlimit="10" x1="-215.239" y1="1231.981" x2="1441.979" y2="-425.233"/>
		
			<line fill="#595967" stroke="#595967" stroke-width="0.25" stroke-miterlimit="10" x1="-231.343" y1="1231.981" x2="1425.865" y2="-425.233"/>
		
			<line fill="#595967" stroke="#595967" stroke-width="0.25" stroke-miterlimit="10" x1="-150.786" y1="1231.981" x2="1506.416" y2="-425.233"/>
		
			<line fill="#595967" stroke="#595967" stroke-width="0.25" stroke-miterlimit="10" x1="-166.891" y1="1231.981" x2="1490.309" y2="-425.233"/>
		
			<line fill="#595967" stroke="#595967" stroke-width="0.25" stroke-miterlimit="10" x1="-86.355" y1="1231.981" x2="1570.861" y2="-425.25"/>
		
			<line fill="#595967" stroke="#595967" stroke-width="0.25" stroke-miterlimit="10" x1="-102.459" y1="1231.981" x2="1554.746" y2="-425.237"/>
		
			<line fill="#595967" stroke="#595967" stroke-width="0.25" stroke-miterlimit="10" x1="-118.573" y1="1231.981" x2="1538.639" y2="-425.237"/>
		
			<line fill="#595967" stroke="#595967" stroke-width="0.25" stroke-miterlimit="10" x1="-134.678" y1="1231.981" x2="1522.523" y2="-425.233"/>
		
			<line fill="#595967" stroke="#595967" stroke-width="0.25" stroke-miterlimit="10" x1="-54.13" y1="1231.981" x2="1603.077" y2="-425.222"/>
		
			<line fill="#595967" stroke="#595967" stroke-width="0.25" stroke-miterlimit="10" x1="-70.235" y1="1231.981" x2="1586.967" y2="-425.237"/>
		
			<line fill="#595967" stroke="#595967" stroke-width="0.25" stroke-miterlimit="10" x1="10.311" y1="1231.981" x2="1667.518" y2="-425.252"/>
		
			<line fill="#595967" stroke="#595967" stroke-width="0.25" stroke-miterlimit="10" x1="-5.794" y1="1231.981" x2="1651.406" y2="-425.25"/>
		
			<line fill="#595967" stroke="#595967" stroke-width="0.25" stroke-miterlimit="10" x1="-21.915" y1="1231.981" x2="1635.305" y2="-425.25"/>
		
			<line fill="#595967" stroke="#595967" stroke-width="0.25" stroke-miterlimit="10" x1="-38.017" y1="1231.981" x2="1619.188" y2="-425.233"/>
		
			<line fill="#595967" stroke="#595967" stroke-width="0.25" stroke-miterlimit="10" x1="42.542" y1="1231.981" x2="1699.744" y2="-425.237"/>
		
			<line fill="#595967" stroke="#595967" stroke-width="0.25" stroke-miterlimit="10" x1="26.434" y1="1231.981" x2="1683.632" y2="-425.233"/>
		
			<line fill="#595967" stroke="#595967" stroke-width="0.25" stroke-miterlimit="10" x1="106.977" y1="1231.981" x2="1764.183" y2="-425.237"/>
		
			<line fill="#595967" stroke="#595967" stroke-width="0.25" stroke-miterlimit="10" x1="90.864" y1="1231.981" x2="1748.074" y2="-425.25"/>
		
			<line fill="#595967" stroke="#595967" stroke-width="0.25" stroke-miterlimit="10" x1="74.754" y1="1231.981" x2="1731.963" y2="-425.233"/>
		
			<line fill="#595967" stroke="#595967" stroke-width="0.25" stroke-miterlimit="10" x1="58.65" y1="1231.981" x2="1715.847" y2="-425.222"/>
		
			<line fill="#595967" stroke="#595967" stroke-width="0.25" stroke-miterlimit="10" x1="139.2" y1="1231.981" x2="1796.402" y2="-425.237"/>
		
			<line fill="#595967" stroke="#595967" stroke-width="0.25" stroke-miterlimit="10" x1="123.094" y1="1231.981" x2="1780.297" y2="-425.222"/>
		
			<line fill="#595967" stroke="#595967" stroke-width="0.25" stroke-miterlimit="10" x1="203.643" y1="1231.981" x2="1860.844" y2="-425.25"/>
		
			<line fill="#595967" stroke="#595967" stroke-width="0.25" stroke-miterlimit="10" x1="187.523" y1="1231.981" x2="1844.739" y2="-425.25"/>
		
			<line fill="#595967" stroke="#595967" stroke-width="0.25" stroke-miterlimit="10" x1="171.418" y1="1231.981" x2="1828.628" y2="-425.237"/>
		
			<line fill="#595967" stroke="#595967" stroke-width="0.25" stroke-miterlimit="10" x1="155.306" y1="1231.981" x2="1812.514" y2="-425.237"/>
		
			<line fill="#595967" stroke="#595967" stroke-width="0.25" stroke-miterlimit="10" x1="235.872" y1="1231.981" x2="1893.068" y2="-425.237"/>
		
			<line fill="#595967" stroke="#595967" stroke-width="0.25" stroke-miterlimit="10" x1="219.748" y1="1231.981" x2="1876.956" y2="-425.233"/>
		
			<line fill="#595967" stroke="#595967" stroke-width="0.25" stroke-miterlimit="10" x1="300.301" y1="1231.981" x2="1957.511" y2="-425.233"/>
		
			<line fill="#595967" stroke="#595967" stroke-width="0.25" stroke-miterlimit="10" x1="284.188" y1="1231.981" x2="1941.399" y2="-425.233"/>
		
			<line fill="#595967" stroke="#595967" stroke-width="0.25" stroke-miterlimit="10" x1="268.083" y1="1231.981" x2="1925.283" y2="-425.222"/>
		
			<line fill="#595967" stroke="#595967" stroke-width="0.25" stroke-miterlimit="10" x1="251.966" y1="1231.981" x2="1909.18" y2="-425.233"/>
		
			<line fill="#595967" stroke="#595967" stroke-width="0.25" stroke-miterlimit="10" x1="332.528" y1="1231.981" x2="1989.727" y2="-425.222"/>
		
			<line fill="#595967" stroke="#595967" stroke-width="0.25" stroke-miterlimit="10" x1="316.416" y1="1231.981" x2="1973.62" y2="-425.222"/>
		
			<line fill="#595967" stroke="#595967" stroke-width="0.25" stroke-miterlimit="10" x1="380.847" y1="1231.981" x2="2038.063" y2="-425.233"/>
		
			<line fill="#595967" stroke="#595967" stroke-width="0.25" stroke-miterlimit="10" x1="364.744" y1="1231.981" x2="2021.949" y2="-425.237"/>
		
			<line fill="#595967" stroke="#595967" stroke-width="0.25" stroke-miterlimit="10" x1="348.631" y1="1231.981" x2="2005.842" y2="-425.25"/>
		
			<line fill="#595967" stroke="#595967" stroke-width="0.25" stroke-miterlimit="10" x1="429.185" y1="1231.981" x2="2086.392" y2="-425.233"/>
		
			<line fill="#595967" stroke="#595967" stroke-width="0.25" stroke-miterlimit="10" x1="413.072" y1="1231.981" x2="2070.279" y2="-425.237"/>
		
			<line fill="#595967" stroke="#595967" stroke-width="0.25" stroke-miterlimit="10" x1="396.966" y1="1231.981" x2="2054.172" y2="-425.233"/>
	</g>
</g>
<g id="图层_1">
	<path fill="#4C4E5A" stroke="#626786" stroke-width="2" stroke-miterlimit="10" d="M0,310.122
		c14.407-50,42.419-102.358,64.834-102.716c42.143-0.674,92.794,196.422,132.135,185.767
		c40.678-11.018,60.175-270.342,109.328-274.579s79.218,223.974,129.858,226.273c37.328,1.695,73.887-136.44,115.248-137.297
		c40.898-0.847,83.43,121.928,119.737,121.925c32.223-0.003,53.555-54.021,58.886-103.275
		c6.582-60.815,23.014-116.534,53.895-116.395c25.648,0.116,51.517,62.161,59.144,63.855s-1.174,316.946-1.174,316.946H0V310.122z"
		/>
</g>
</svg>
