<?xml version="1.0" encoding="utf-8"?>
<!-- Generator: Adobe Illustrator 19.1.0, SVG Export Plug-In . SVG Version: 6.00 Build 0)  -->
<svg version="1.1" id="Layer_1" xmlns="http://www.w3.org/2000/svg" xmlns:xlink="http://www.w3.org/1999/xlink" x="0px" y="0px"
	 width="400px" height="270px" viewBox="0 0 400 270" style="enable-background:new 0 0 400 270;" xml:space="preserve">
<style type="text/css">
	.st0{fill:#FFFFFF;stroke:#E2E2E2;stroke-miterlimit:10;}
	.st1{opacity:0.5;fill:none;stroke:#EBEBEB;stroke-width:4.3124;stroke-linecap:round;stroke-miterlimit:10;}
	.st2{fill:#05526A;stroke:#05526A;stroke-miterlimit:10;}
	.st3{opacity:0.5;fill:#EBEBEB;}
	.st4{opacity:0.1;fill:#EBEBEB;}
	.st5{fill:#CED4D6;}
	.st6{fill:#9DADB3;}
	.st7{fill:#05526A;}
	.st8{opacity:0.75;fill:#05526A;}
	.st9{fill:#ECECEC;}
	.st10{opacity:0.25;fill:#EBEBEB;}
	.st11{fill:#FFFFFF;}
	.st12{fill:#CED4D6;stroke:#CED4D6;stroke-miterlimit:10;}
	.st13{fill:#CED4D6;stroke:#E2E2E2;stroke-miterlimit:10;}
</style>
<g>
	<path class="st0" d="M6.3,17.4H393c2.8,0,5,2.3,5,5.2v238c0,2.9-2.2,5.2-5,5.2H6.3c-2.8,0-5-2.3-5-5.2v-238
		C1.3,19.8,3.5,17.4,6.3,17.4z"/>
	<line class="st1" x1="59.9" y1="28.6" x2="118.2" y2="28.6"/>
	<path class="st2" d="M395.3,3.5H4c-1.7,0-3,0.9-3,2.1v10.5v6.4v10.7h397.3V22.5v-6.4V5.6C398.3,4.5,396.9,3.5,395.3,3.5z"/>
	<g>
		<path class="st7" d="M249.7,154.8c0-0.6-1.5-1.1-3.4-1.1h-40.9c-1.9,0-3.4,0.5-3.4,1.1v12.7c0,0.6,1.5,1.1,3.4,1.1h40.9
			c1.9,0,3.4-0.5,3.4-1.1V154.8z"/>
		<path class="st8" d="M303.2,154.8c0-0.6-1.5-1.1-3.4-1.1h-40.9c-1.9,0-3.4,0.5-3.4,1.1v12.7c0,0.6,1.5,1.1,3.4,1.1h40.9
			c1.9,0,3.4-0.5,3.4-1.1V154.8z"/>
	</g>
	<path class="st6" d="M338,55.3h-35.6h-6.7h-15.1H260h-15.1h-6.7h-35.6c-1.1,0-2,0.9-2,2v5c0,1.1,0.9,2,2,2h35.6h6.7H260h20.5h15.1
		h6.7H338c1.1,0,2-0.9,2-2v-5C340,56.2,339.1,55.3,338,55.3z"/>
	<path class="st3" d="M69.9,14.2H43.4H32.3h-15c-1.1,0-2,0.9-2,2v5c0,1.1,0.9,2,2,2h15h11.1h26.6c1.1,0,2-0.9,2-2v-5
		C71.9,15.1,71,14.2,69.9,14.2z"/>
	<g>
		<path class="st4" d="M358.3,14.1h-0.5l0,0h-28.5h-3.4h-28.5c-0.6,0-1,0.9-1,2v5c0,1.1,0.5,2,1,2h28.5h3.4h28.5l0,0h0.5h2.9v-9.1
			H358.3z"/>
		<path class="st10" d="M379.4,14.1h-11.5h-6.7v9.1h6.7h11.5c0.6,0,1-0.9,1-2v-5C380.4,15,379.9,14.1,379.4,14.1z"/>
	</g>
	<path class="st5" d="M177.5,51.6h-47.7H67.4H19.7c-2.2,0-4,1.8-4,4v75.8c0,2.2,1.8,4,4,4h47.7h62.3h47.7c2.2,0,4-1.8,4-4V55.6
		C181.5,53.4,179.7,51.6,177.5,51.6z"/>
	<path class="st5" d="M48.9,147.5c0-0.6-0.5-1.1-1.1-1.1h-31c-0.6,0-1.1,0.5-1.1,1.1v21.3c0,0.6,0.5,1.1,1.1,1.1h31
		c0.6,0,1.1-0.5,1.1-1.1V147.5z"/>
	<g>
		<path class="st9" d="M116,207.7H73.7c-1.1,0-2,0.9-2,2v5c0,1.1,0.9,2,2,2H116c1.1,0,2-0.9,2-2v-5
			C118.1,208.6,117.2,207.7,116,207.7z"/>
		<path class="st9" d="M108.6,222.5H95.9h-9.4H73.7c-1.1,0-2,0.9-2,2v5c0,1.1,0.9,2,2,2h12.8h9.4h12.8c1.1,0,2-0.9,2-2v-5
			C110.7,223.4,109.8,222.5,108.6,222.5z"/>
		<path class="st5" d="M61.8,208.4c0-0.9-0.7-1.5-1.5-1.5H17.3c-0.9,0-1.5,0.7-1.5,1.5V238c0,0.9,0.7,1.5,1.5,1.5h42.9
			c0.9,0,1.5-0.7,1.5-1.5V208.4z"/>
	</g>
	<g>
		<path class="st9" d="M233.4,207.7h-33.3c-1.1,0-2,0.9-2,2v5c0,1.1,0.9,2,2,2h33.3c1.1,0,2-0.9,2-2v-5
			C235.4,208.6,234.5,207.7,233.4,207.7z"/>
		<path class="st9" d="M250.2,222.5h-12.8h-24.5h-12.8c-1.1,0-2,0.9-2,2v5c0,1.1,0.9,2,2,2h12.8h24.5h12.8c1.1,0,2-0.9,2-2v-5
			C252.2,223.4,251.3,222.5,250.2,222.5z"/>
		<path class="st5" d="M188.2,208.4c0-0.9-0.7-1.5-1.5-1.5h-42.9c-0.9,0-1.5,0.7-1.5,1.5V238c0,0.9,0.7,1.5,1.5,1.5h42.9
			c0.9,0,1.5-0.7,1.5-1.5V208.4z"/>
	</g>
	<g>
		<path class="st9" d="M363.1,207.7h-31.3c-1.1,0-2,0.9-2,2v5c0,1.1,0.9,2,2,2h31.3c1.1,0,2-0.9,2-2v-5
			C365.1,208.6,364.2,207.7,363.1,207.7z"/>
		<path class="st9" d="M378.9,222.5h-9.7h-24.5h-12.8c-1.1,0-2,0.9-2,2v5c0,1.1,0.9,2,2,2h12.8h24.5h9.7c1.1,0,2-0.9,2-2v-5
			C380.9,223.4,380,222.5,378.9,222.5z"/>
		<path class="st5" d="M319.9,208.4c0-0.9-0.7-1.5-1.5-1.5h-42.9c-0.9,0-1.5,0.7-1.5,1.5V238c0,0.9,0.7,1.5,1.5,1.5h42.9
			c0.9,0,1.5-0.7,1.5-1.5V208.4z"/>
	</g>
	<path class="st5" d="M92.8,147.5c0-0.6-0.5-1.1-1.1-1.1h-31c-0.6,0-1.1,0.5-1.1,1.1v21.3c0,0.6,0.5,1.1,1.1,1.1h31
		c0.6,0,1.1-0.5,1.1-1.1V147.5z"/>
	<path class="st5" d="M136.7,147.5c0-0.6-0.5-1.1-1.1-1.1h-31c-0.6,0-1.1,0.5-1.1,1.1v21.3c0,0.6,0.5,1.1,1.1,1.1h31
		c0.6,0,1.1-0.5,1.1-1.1V147.5z"/>
	<path class="st5" d="M180.6,147.5c0-0.6-0.5-1.1-1.1-1.1h-31c-0.6,0-1.1,0.5-1.1,1.1v21.3c0,0.6,0.5,1.1,1.1,1.1h31
		c0.6,0,1.1-0.5,1.1-1.1V147.5z"/>
	<g>
		<path class="st9" d="M202.5,84.2h31h4.6h1.7H257h12.2h1.7h4.6h13.1h4h1.7h0.1h7h1.7h3.5h0.6h1.7h8.5h4.3h1.7h15.5h20.2
			c1.1,0,2-0.9,2-2v-5c0-1.1-0.9-2-2-2h-20.2h-15.5h-1.7h-4.3h-8.5h-1.7h-0.6H303h-1.7h-7h-0.1h-1.7h-4h-13.1h-4.6h-1.7H257h-17.1
			h-1.7h-4.6h-31c-1.1,0-2,0.9-2,2v5C200.5,83.3,201.4,84.2,202.5,84.2z"/>
		<path class="st9" d="M381.7,90.6h-20.2H346h-1.7h-14.5h-4h-1.7h-7h-8.5h-2.2h-12.2h-1.7h-4h-13.1h-4.6h-1.7H257h-17.1h-1.7h-4.6
			h-31c-1.1,0-2,0.9-2,2v5c0,1.1,0.9,2,2,2h31h4.6h1.7H257h12.2h1.7h4.6h13.1h4h1.7h12.2h2.2h8.5h7h1.7h4h14.5h1.7h15.5h20.2
			c1.1,0,2-0.9,2-2v-5C383.7,91.5,382.8,90.6,381.7,90.6z"/>
		<path class="st9" d="M202.5,115.1h31h4.6h1.7H257h12.2h1.7h4.6h13.1h4h1.7h8.8h3.4h2.2h1.3h1.7h4h1.5h13h1.7h15.5h20.2
			c1.1,0,2-0.9,2-2v-5c0-1.1-0.9-2-2-2h-20.2h-15.5h-1.7h-13h-1.5h-4h-1.7h-1.3h-2.2h-3.4h-8.8h-1.7h-4h-13.1h-4.6h-1.7H257h-17.1
			h-1.7h-4.6h-31c-1.1,0-2,0.9-2,2v5C200.5,114.2,201.4,115.1,202.5,115.1z"/>
		<path class="st9" d="M377,121.5h-20.2h-15.5h-1.7h-14.5h-4h-1.7h-2.2h-4.7h-3.8h-2.2h-12.2h-1.7h-4h-13.1h-4.6h-1.7H257h-17.1
			h-1.7h-4.6h-31c-1.1,0-2,0.9-2,2v5c0,1.1,0.9,2,2,2h31h4.6h1.7H257h12.2h1.7h4.6h13.1h4h1.7h12.2h2.2h3.8h4.7h2.2h1.7h4h14.5h1.7
			h15.5H377c1.1,0,2-0.9,2-2v-5C379,122.4,378.1,121.5,377,121.5z"/>
	</g>
</g>
</svg>
